<?xml version="1.0" standalone="no"?>
<!DOCTYPE svg PUBLIC "-//W3C//DTD SVG 20010904//EN"
 "http://www.w3.org/TR/2001/REC-SVG-20010904/DTD/svg10.dtd">
<svg version="1.0" xmlns="http://www.w3.org/2000/svg"
 width="260.000000pt" height="260.000000pt" viewBox="0 0 260.000000 260.000000"
 preserveAspectRatio="xMidYMid meet">
<metadata>
Created by potrace 1.11, written by Peter Selinger 2001-2013
</metadata>
<g transform="translate(0.000000,260.000000) scale(0.100000,-0.100000)"
fill="#000000" stroke="none">
<path d="M1205 2463 c-289 -26 -513 -130 -715 -333 -192 -192 -282 -373 -329
-657 -9 -60 -7 -263 3 -338 34 -230 147 -447 325 -626 181 -182 338 -266 606
-325 61 -14 329 -12 405 2 361 67 667 299 830 628 166 337 152 766 -37 1081
-139 230 -373 424 -613 508 -137 48 -333 72 -475 60z m-118 -618 c114 -68 109
-259 -10 -322 -45 -24 -143 -23 -185 2 -103 61 -119 221 -29 303 31 29 100 50
146 45 20 -2 55 -15 78 -28z m588 16 c3 -1 9 -1 14 -1 16 0 71 -51 86 -80 20
-39 26 -114 12 -156 -15 -41 -60 -92 -96 -106 -68 -27 -159 -12 -208 34 -82
77 -68 232 26 290 41 26 96 37 134 27 15 -4 30 -8 32 -8z m238 -510 l47 -1 0
-42 c0 -64 -27 -164 -61 -232 -127 -252 -386 -378 -704 -345 -120 13 -192 35
-288 91 -149 86 -250 227 -279 388 -15 80 -14 109 5 111 17 2 45 6 107 14 50
6 56 5 56 -12 4 -173 126 -303 334 -357 106 -27 275 -16 390 25 50 17 140 76
173 113 51 55 89 155 91 239 0 15 7 17 41 13 22 -3 61 -5 88 -5z"/>
</g>
</svg>
