<?xml version="1.0" encoding="UTF-8"?>
<svg width="62px" height="62px" viewBox="0 0 62 62" version="1.1" xmlns="http://www.w3.org/2000/svg" xmlns:xlink="http://www.w3.org/1999/xlink">
    <!-- Generator: Sketch 55.2 (78181) - https://sketchapp.com -->
    <title>Group 4</title>
    <desc>Created with Sketch.</desc>
    <g id="Page-1" stroke="none" stroke-width="1" fill="none" fill-rule="evenodd" opacity="0.3">
        <g id="Desktop-HD" transform="translate(-1509.000000, -55.000000)" stroke="#FFFFFF" stroke-width="1.6">
            <g id="Group-6" transform="translate(1509.000000, 55.000000)">
                <g id="Group-4" transform="translate(31.000000, 31.000000) scale(-1, 1) translate(-31.000000, -31.000000) ">
                    <g id="Group-3">
                        <rect id="Rectangle" fill-opacity="0.4" fill="#000000" x="0.8" y="0.8" width="60.4" height="60.4" rx="30.2"></rect>
                        <path d="M26.6012435,22.430383 C26.4185251,22.3245987 26.2111311,22.2688946 26,22.2688946 C25.3372583,22.2688946 24.8,22.8061529 24.8,23.4688946 L24.8,38.5311054 C24.8,38.7422365 24.8557041,38.9496305 24.9614885,39.132349 C25.2935461,39.705903 26.0276894,39.9016746 26.6012435,39.569617 L39.6095165,32.0385115 C39.7909704,31.9334593 39.9417323,31.7826973 40.0467846,31.6012435 C40.3788422,31.0276894 40.1830706,30.2935461 39.6095165,29.9614885 L26.6012435,22.430383 Z" id="Rectangle" fill="#FFFFFF"></path>
                    </g>
                </g>
            </g>
        </g>
    </g>
</svg>